<?xml version="1.0" standalone="no"?><svg xmlns="http://www.w3.org/2000/svg" viewBox="0 0 1440 320"><path fill="#64ffda" fill-opacity="1" d="M0,32L13.3,48C26.7,64,53,96,80,90.7C106.7,85,133,43,160,69.3C186.7,96,213,192,240,218.7C266.7,245,293,203,320,165.3C346.7,128,373,96,400,106.7C426.7,117,453,171,480,160C506.7,149,533,75,560,90.7C586.7,107,613,213,640,234.7C666.7,256,693,192,720,144C746.7,96,773,64,800,90.7C826.7,117,853,203,880,245.3C906.7,288,933,288,960,293.3C986.7,299,1013,309,1040,288C1066.7,267,1093,213,1120,170.7C1146.7,128,1173,96,1200,112C1226.7,128,1253,192,1280,224C1306.7,256,1333,256,1360,218.7C1386.7,181,1413,107,1427,69.3L1440,32L1440,320L1426.7,320C1413.3,320,1387,320,1360,320C1333.3,320,1307,320,1280,320C1253.3,320,1227,320,1200,320C1173.3,320,1147,320,1120,320C1093.3,320,1067,320,1040,320C1013.3,320,987,320,960,320C933.3,320,907,320,880,320C853.3,320,827,320,800,320C773.3,320,747,320,720,320C693.3,320,667,320,640,320C613.3,320,587,320,560,320C533.3,320,507,320,480,320C453.3,320,427,320,400,320C373.3,320,347,320,320,320C293.3,320,267,320,240,320C213.3,320,187,320,160,320C133.3,320,107,320,80,320C53.3,320,27,320,13,320L0,320Z"></path></svg>